<?xml version="1.0" encoding="utf-8"?>
<svg version="1.1" xmlns:xlink="http://www.w3.org/1999/xlink" width="22px" height="30px" xmlns="http://www.w3.org/2000/svg">
  <g transform="matrix(1 0 0 1 -104 -5 )">
    <path d="M 21.6219931271478 14.3086172344689  C 21.8739977090493 14.5090180360721  22 14.7394789579158  22 15  C 22 15.2605210420842  21.8739977090493 15.4909819639279  21.6219931271478 15.6913827655311  L 4.00687285223368 29.6993987975952  C 3.75486827033219 29.8997995991984  3.46506300114548 30  3.13745704467354 30  C 2.8098510882016 30  2.52004581901489 29.8997995991984  2.2680412371134 29.6993987975952  L 0.378006872852234 28.1963927855711  C 0.126002290950745 27.9959919839679  0 27.7655310621243  0 27.5050100200401  C 0 27.2444889779559  0.126002290950745 27.0140280561122  0.378006872852234 26.813627254509  L 15.233676975945 15  L 0.378006872852234 3.18637274549098  C 0.126002290950745 2.98597194388777  0 2.75551102204409  0 2.49498997995992  C 0 2.23446893787575  0.126002290950745 2.00400801603206  0.378006872852234 1.80360721442886  L 2.2680412371134 0.30060120240481  C 2.52004581901489 0.100200400801602  2.8098510882016 0  3.13745704467354 0  C 3.46506300114548 0  3.75486827033219 0.100200400801602  4.00687285223368 0.30060120240481  L 21.6219931271478 14.3086172344689  Z " fill-rule="nonzero" fill="#000000" stroke="none" transform="matrix(1 0 0 1 104 5 )" />
  </g>
</svg>