<?xml version="1.0" encoding="utf-8"?>
<svg version="1.1" xmlns:xlink="http://www.w3.org/1999/xlink" width="20px" height="26px" xmlns="http://www.w3.org/2000/svg">
  <g transform="matrix(1 0 0 1 -250 -30 )">
    <path d="M 20 13  C 20 13.2795698924731  19.8777348777349 13.5215053763441  19.6332046332046 13.7258064516129  L 5.30888030888031 25.6935483870968  C 5.06435006435007 25.8978494623656  4.77477477477478 26  4.44015444015444 26  C 4.10553410553411 26  3.81595881595882 25.8978494623656  3.57142857142857 25.6935483870968  L 0.366795366795367 23.0161290322581  C 0.122265122265122 22.8118279569892  0 22.5698924731183  0 22.2903225806452  C 0 22.010752688172  0.122265122265122 21.7688172043011  0.366795366795367 21.5645161290323  L 10.6177606177606 13  L 0.366795366795367 4.43548387096774  C 0.122265122265122 4.23118279569892  0 3.98924731182796  0 3.70967741935484  C 0 3.43010752688172  0.122265122265122 3.18817204301075  0.366795366795367 2.98387096774194  L 3.57142857142857 0.306451612903225  C 3.81595881595882 0.102150537634407  4.10553410553411 0  4.44015444015444 0  C 4.77477477477478 0  5.06435006435007 0.102150537634407  5.30888030888031 0.306451612903225  L 19.6332046332046 12.2741935483871  C 19.8777348777349 12.4784946236559  20 12.7204301075269  20 13  Z " fill-rule="nonzero" fill="#000000" stroke="none" transform="matrix(1 0 0 1 250 30 )" />
  </g>
</svg>